<?xml version="1.0" encoding="utf-8"?>
<!-- Generator: Adobe Illustrator 26.5.0, SVG Export Plug-In . SVG Version: 6.00 Build 0)  -->
<svg version="1.1" id="Layer_1" xmlns="http://www.w3.org/2000/svg" xmlns:xlink="http://www.w3.org/1999/xlink" x="0px" y="0px"
	 viewBox="0 0 1080 1080" style="enable-background:new 0 0 1080 1080;" xml:space="preserve">
<style type="text/css">
	.st0{fill:#FFFFFF;}
	.st1{fill:#FAAC2A;}
	.st2{fill:#FC7300;}
	.st3{fill:#183A1D;}
</style>
<path class="st0" d="M854.1,1080H225.9C101.1,1080,0,978.9,0,854.1V225.9C0,101.1,101.1,0,225.9,0h628.3
	C978.9,0,1080,101.1,1080,225.9v628.3C1080,978.9,978.9,1080,854.1,1080z"/>
<g>
	<path class="st1" d="M775.3,219.6c-175.5,0-369.3,0-544.8,0c-4.2,0-8.1,1.9-11,5.1c-3.4,3.7-5.5,9-5.5,15.1v501
		c2.1-0.4,4.2-0.8,6.4-1.2c30.4-4.9,53.6,3.5,76.8,20.2l102.6,60l-77.8-290.3c-31-115.9,125-163,156.1-47l38.3,143
		c9.3-7.3,20.2-12.8,32.2-16.1c26.7-7.2,55.5-1.4,77.5,14.9c31.8-41.4,90.7-46.7,129.8-14.2c10.3-12.4,22.7-21,35.9-26.2V239.8
		c0-6.1-2.1-11.4-5.5-15.1C783.4,221.5,779.5,219.6,775.3,219.6z"/>
	<path class="st2" d="M775.3,219.6H502.9V575l13.5,50.4c9.3-7.3,20.2-12.8,32.2-16.1c26.7-7.2,55.5-1.4,77.5,14.9
		c31.8-41.4,90.7-46.7,129.8-14.2c10.3-12.4,22.7-21,35.9-26.2V239.8c0-6.1-2.1-11.4-5.5-15.1C783.4,221.5,779.5,219.6,775.3,219.6z
		"/>
	<path class="st3" d="M903.3,635.7c-8.9-33.1-34.6-55.3-64.1-62.8V252.7c0-39-30.5-74-70.5-74h-98C658.7,97,587.8,33.9,502.9,33.9
		c-84.9,0-155.8,63.2-168,144.8h-98c-40,0-70.4,35-70.4,74l0.2,509.1c-25.2,37.9-5,97.5,41.8,137l166.5,140.6
		c27.1,23,62.1-18.4,35-41.3L237.2,852.2c-55.7-47-15.9-90.8,30-62.7l146.2,105.1c20.9,15,48.6-4.2,41.5-30.5l-95.1-355
		c-11.2-41.7,51.8-64.5,66.8-16.7l58.2,217.2c10,24.8,56.5,17,51.5-18c-2.5-17.2,8.3-33.7,25.2-38.2c18.3-4.9,37.3,6,42.2,24.3
		c3.7,17.8,22,26.5,37.5,18.7c9-4.5,21.8-14.6,18-31.7c-2.9-12.8,10.3-29.6,28-32c14.7-2,33.7,6.8,39.3,28c5.1,19.1,7.8,43,38.8,40
		c32.8-8.8,11-39.1,22.6-59.3c15.2-26.3,53-22.3,63.5,9.7l19.6,73.1c3.9,14.5,18.7,23,33.2,19.2c14.5-3.9,23-18.7,19.2-33.2
		L903.3,635.7z M502.9,88.1c54.9,0,101.3,39,112.8,90.6H390.1C401.6,127,447.9,88.1,502.9,88.1z M785,576.1
		c-12.9,5.1-25,13.5-35.1,25.6c-38.2-31.7-95.7-26.5-126.7,13.9c-21.5-15.9-49.6-21.5-75.7-14.5c-11.8,3.2-22.4,8.6-31.5,15.7
		l-37.4-139.6c-30.4-113.3-201.5-67.3-171.2,45.9l75.9,283.4L302,747.8c-26-18.7-49.7-25-81.2-18.6V252.7c0-9.3,5.9-19.7,16.2-19.7
		h96.2v83.6c0,15,12.2,27.1,27.1,27.1c15,0,27.1-12.2,27.1-27.1v-83.6h231.1v83.6c0,15,12.2,27.1,27.1,27.1
		c15,0,27.1-12.2,27.1-27.1v-83.6h96.1c10.2,0,16.2,10.4,16.2,19.7V576.1z"/>
</g>
</svg>
